<?xml version="1.0" encoding="UTF-8" standalone="no"?>
<!DOCTYPE svg PUBLIC "-//W3C//DTD SVG 1.1//EN"
 "http://www.w3.org/Graphics/SVG/1.1/DTD/svg11.dtd">
<!-- Generated by graphviz version 2.40.1 (20161225.0304)
 -->
<!-- Title: G Pages: 1 -->
<svg width="1266pt" height="474pt"
 viewBox="0.00 0.00 1265.56 474.00" xmlns="http://www.w3.org/2000/svg" xmlns:xlink="http://www.w3.org/1999/xlink">
<g id="graph0" class="graph" transform="scale(1 1) rotate(0) translate(4 470)">
<title>G</title>
<polygon fill="#ffffff" stroke="transparent" points="-4,4 -4,-470 1261.5555,-470 1261.5555,4 -4,4"/>
<!-- A0 -->
<g id="node1" class="node">
<title>A0</title>
<polygon fill="none" stroke="#000000" points="724.2245,-466 601.0005,-466 601.0005,-430 730.2245,-430 730.2245,-460 724.2245,-466"/>
<polyline fill="none" stroke="#000000" points="724.2245,-466 724.2245,-460 "/>
<polyline fill="none" stroke="#000000" points="730.2245,-460 724.2245,-460 "/>
<text text-anchor="middle" x="665.6125" y="-451" font-family="Helvetica,sans-Serif" font-size="10.00" fill="#000000">Diagram Module Class</text>
<text text-anchor="middle" x="665.6125" y="-439" font-family="Helvetica,sans-Serif" font-size="10.00" fill="#000000">Diagram</text>
</g>
<!-- A1 -->
<g id="node2" class="node">
<title>A1</title>
<polygon fill="#006400" stroke="#000000" points="865.5674,-466 747.6576,-466 747.6576,-430 865.5674,-430 865.5674,-466"/>
<text text-anchor="middle" x="806.6125" y="-445" font-family="Helvetica,sans-Serif" font-size="10.00" fill="#ffffff">DiagramComponent</text>
</g>
<!-- A2 -->
<g id="node3" class="node">
<title>A2</title>
<polygon fill="#a52a2a" stroke="#000000" points="861.2155,-380 752.0095,-380 752.0095,-344 861.2155,-344 861.2155,-380"/>
<text text-anchor="middle" x="806.6125" y="-359" font-family="Helvetica,sans-Serif" font-size="10.00" fill="#000000">DiagramController</text>
</g>
<!-- A1&#45;&gt;A2 -->
<g id="edge1" class="edge">
<title>A1&#45;&gt;A2</title>
<path fill="none" stroke="#000000" d="M806.6125,-417.5205C806.6125,-408.6543 806.6125,-399.01 806.6125,-390.2849"/>
<polygon fill="none" stroke="#000000" points="806.6126,-417.7616 810.6125,-423.7616 806.6125,-429.7616 802.6125,-423.7616 806.6126,-417.7616"/>
<polygon fill="#000000" stroke="#000000" points="806.6125,-380.2121 811.1126,-390.2121 806.6125,-385.2121 806.6126,-390.2121 806.6126,-390.2121 806.6126,-390.2121 806.6125,-385.2121 802.1126,-390.2121 806.6125,-380.2121 806.6125,-380.2121"/>
</g>
<!-- A3 -->
<g id="node4" class="node">
<title>A3</title>
<polygon fill="#ffa500" stroke="#000000" points="704.2206,-294 605.0044,-294 605.0044,-258 704.2206,-258 704.2206,-294"/>
<text text-anchor="middle" x="654.6125" y="-273" font-family="Helvetica,sans-Serif" font-size="10.00" fill="#000000">DiagramService</text>
</g>
<!-- A2&#45;&gt;A3 -->
<g id="edge2" class="edge">
<title>A2&#45;&gt;A3</title>
<path fill="none" stroke="#000000" d="M765.8868,-338.9578C743.9791,-326.5627 717.0461,-311.3243 695.1649,-298.9441"/>
<polygon fill="#000000" stroke="#000000" points="774.7483,-343.9716 763.8288,-342.9638 770.3966,-341.5094 766.0448,-339.0472 766.0448,-339.0472 766.0448,-339.0472 770.3966,-341.5094 768.2608,-335.1306 774.7483,-343.9716 774.7483,-343.9716"/>
<polygon fill="#000000" stroke="#000000" points="686.4347,-294.0047 697.3542,-295.0125 690.7865,-296.4669 695.1382,-298.9291 695.1382,-298.9291 695.1382,-298.9291 690.7865,-296.4669 692.9223,-302.8457 686.4347,-294.0047 686.4347,-294.0047"/>
</g>
<!-- A4 -->
<g id="node5" class="node">
<title>A4</title>
<polygon fill="#a52a2a" stroke="#000000" points="891.2466,-294 721.9784,-294 721.9784,-258 891.2466,-258 891.2466,-294"/>
<text text-anchor="middle" x="806.6125" y="-273" font-family="Helvetica,sans-Serif" font-size="10.00" fill="#000000">SvgObjectComponentController</text>
</g>
<!-- A2&#45;&gt;A4 -->
<g id="edge3" class="edge">
<title>A2&#45;&gt;A4</title>
<path fill="none" stroke="#000000" d="M806.6125,-331.5205C806.6125,-322.6543 806.6125,-313.01 806.6125,-304.2849"/>
<polygon fill="none" stroke="#000000" points="806.6126,-331.7616 810.6125,-337.7616 806.6125,-343.7616 802.6125,-337.7616 806.6126,-331.7616"/>
<polygon fill="#000000" stroke="#000000" points="806.6125,-294.2121 811.1126,-304.2121 806.6125,-299.2121 806.6126,-304.2121 806.6126,-304.2121 806.6126,-304.2121 806.6125,-299.2121 802.1126,-304.2121 806.6125,-294.2121 806.6125,-294.2121"/>
</g>
<!-- A5 -->
<g id="node6" class="node">
<title>A5</title>
<polygon fill="#a52a2a" stroke="#000000" points="1043.7819,-294 909.4431,-294 909.4431,-258 1043.7819,-258 1043.7819,-294"/>
<text text-anchor="middle" x="976.6125" y="-273" font-family="Helvetica,sans-Serif" font-size="10.00" fill="#000000">DiagramEventController</text>
</g>
<!-- A2&#45;&gt;A5 -->
<g id="edge4" class="edge">
<title>A2&#45;&gt;A5</title>
<path fill="none" stroke="#000000" d="M853.2651,-338.3993C877.8248,-325.975 907.7884,-310.8169 932.033,-298.552"/>
<polygon fill="none" stroke="#000000" points="852.9579,-338.5546 849.4096,-344.8324 842.2501,-343.9716 845.7983,-337.6938 852.9579,-338.5546"/>
<polygon fill="#000000" stroke="#000000" points="941.0218,-294.0047 934.13,-302.5343 936.5603,-296.2617 932.0987,-298.5188 932.0987,-298.5188 932.0987,-298.5188 936.5603,-296.2617 930.0673,-294.5034 941.0218,-294.0047 941.0218,-294.0047"/>
</g>
<!-- A6 -->
<g id="node7" class="node">
<title>A6</title>
<polygon fill="#707070" stroke="#000000" points="163.3859,-208 97.8391,-208 97.8391,-172 163.3859,-172 163.3859,-208"/>
<text text-anchor="middle" x="130.6125" y="-187" font-family="Helvetica,sans-Serif" font-size="10.00" fill="#000000">Diagram</text>
</g>
<!-- A3&#45;&gt;A6 -->
<g id="edge5" class="edge">
<title>A3&#45;&gt;A6</title>
<path fill="none" stroke="#000000" d="M592.5721,-272.5046C501.7411,-266.2417 327.5636,-249.8797 173.8866,-207.961"/>
<polygon fill="none" stroke="#000000" points="592.8356,-272.5221 599.0888,-268.9308 604.809,-273.3217 598.5558,-276.913 592.8356,-272.5221"/>
<polygon fill="#000000" stroke="#000000" points="163.7949,-205.1627 174.6337,-203.4984 168.6131,-206.4988 173.4313,-207.8348 173.4313,-207.8348 173.4313,-207.8348 168.6131,-206.4988 172.2289,-212.1712 163.7949,-205.1627 163.7949,-205.1627"/>
</g>
<!-- A7 -->
<g id="node8" class="node">
<title>A7</title>
<polygon fill="#ffa500" stroke="#000000" points="285.7286,-208 181.4964,-208 181.4964,-172 285.7286,-172 285.7286,-208"/>
<text text-anchor="middle" x="233.6125" y="-187" font-family="Helvetica,sans-Serif" font-size="10.00" fill="#000000">ClipboardService</text>
</g>
<!-- A3&#45;&gt;A7 -->
<g id="edge6" class="edge">
<title>A3&#45;&gt;A7</title>
<path fill="none" stroke="#000000" d="M592.7972,-266.262C522.8735,-254.813 405.4878,-234.2858 295.6829,-208.1447"/>
<polygon fill="none" stroke="#000000" points="592.9355,-266.2844 599.4999,-263.2996 604.7799,-268.211 598.2155,-271.1958 592.9355,-266.2844"/>
<polygon fill="#000000" stroke="#000000" points="285.763,-205.7625 296.5374,-203.722 290.6248,-206.9301 295.4866,-208.0976 295.4866,-208.0976 295.4866,-208.0976 290.6248,-206.9301 294.4358,-212.4732 285.763,-205.7625 285.763,-205.7625"/>
</g>
<!-- A8 -->
<g id="node9" class="node">
<title>A8</title>
<polygon fill="#ffa500" stroke="#000000" points="411.5614,-208 303.6636,-208 303.6636,-172 411.5614,-172 411.5614,-208"/>
<text text-anchor="middle" x="357.6125" y="-187" font-family="Helvetica,sans-Serif" font-size="10.00" fill="#000000">CommandService</text>
</g>
<!-- A3&#45;&gt;A8 -->
<g id="edge7" class="edge">
<title>A3&#45;&gt;A8</title>
<path fill="none" stroke="#000000" d="M593.1723,-258.2092C542.965,-243.6711 472.2325,-223.1896 421.3993,-208.4702"/>
<polygon fill="none" stroke="#000000" points="593.3749,-258.2678 600.2507,-256.0945 604.9014,-261.6055 598.0256,-263.7788 593.3749,-258.2678"/>
<polygon fill="#000000" stroke="#000000" points="411.5099,-205.6067 422.367,-204.0657 416.3126,-206.9974 421.1154,-208.3881 421.1154,-208.3881 421.1154,-208.3881 416.3126,-206.9974 419.8637,-212.7105 411.5099,-205.6067 411.5099,-205.6067"/>
</g>
<!-- A9 -->
<g id="node10" class="node">
<title>A9</title>
<polygon fill="#ffa500" stroke="#000000" points="523.7831,-208 429.4419,-208 429.4419,-172 523.7831,-172 523.7831,-208"/>
<text text-anchor="middle" x="476.6125" y="-187" font-family="Helvetica,sans-Serif" font-size="10.00" fill="#000000">FactoryService</text>
</g>
<!-- A3&#45;&gt;A9 -->
<g id="edge8" class="edge">
<title>A3&#45;&gt;A9</title>
<path fill="none" stroke="#000000" d="M606.1507,-252.5859C580.2647,-240.0792 548.5603,-224.7613 522.9963,-212.4102"/>
<polygon fill="none" stroke="#000000" points="606.4929,-252.7511 613.6355,-251.7597 617.2979,-257.9716 610.1552,-258.963 606.4929,-252.7511"/>
<polygon fill="#000000" stroke="#000000" points="513.878,-208.0047 524.8398,-208.3032 518.3801,-210.1799 522.8822,-212.3551 522.8822,-212.3551 522.8822,-212.3551 518.3801,-210.1799 520.9245,-216.4069 513.878,-208.0047 513.878,-208.0047"/>
</g>
<!-- A10 -->
<g id="node11" class="node">
<title>A10</title>
<polygon fill="#ffa500" stroke="#000000" points="645.0705,-208 542.1545,-208 542.1545,-172 645.0705,-172 645.0705,-208"/>
<text text-anchor="middle" x="593.6125" y="-187" font-family="Helvetica,sans-Serif" font-size="10.00" fill="#000000">SelectionService</text>
</g>
<!-- A3&#45;&gt;A10 -->
<g id="edge9" class="edge">
<title>A3&#45;&gt;A10</title>
<path fill="none" stroke="#000000" d="M634.6555,-247.8639C627.5061,-237.7844 619.4753,-226.4623 612.4259,-216.5238"/>
<polygon fill="none" stroke="#000000" points="634.7334,-247.9738 641.4673,-250.5535 641.676,-257.7616 634.9421,-255.1819 634.7334,-247.9738"/>
<polygon fill="#000000" stroke="#000000" points="606.5304,-208.2121 615.9863,-213.7652 609.4231,-212.2904 612.3159,-216.3686 612.3159,-216.3686 612.3159,-216.3686 609.4231,-212.2904 608.6454,-218.9721 606.5304,-208.2121 606.5304,-208.2121"/>
</g>
<!-- A11 -->
<g id="node12" class="node">
<title>A11</title>
<polygon fill="#ffa500" stroke="#000000" points="770.5715,-208 662.6535,-208 662.6535,-172 770.5715,-172 770.5715,-208"/>
<text text-anchor="middle" x="716.6125" y="-187" font-family="Helvetica,sans-Serif" font-size="10.00" fill="#000000">SvgObjectService</text>
</g>
<!-- A3&#45;&gt;A11 -->
<g id="edge10" class="edge">
<title>A3&#45;&gt;A11</title>
<path fill="none" stroke="#000000" d="M674.8967,-247.8639C682.1633,-237.7844 690.3257,-226.4623 697.4907,-216.5238"/>
<polygon fill="none" stroke="#000000" points="674.7788,-248.0275 674.5146,-255.2338 667.7611,-257.7616 668.0252,-250.5553 674.7788,-248.0275"/>
<polygon fill="#000000" stroke="#000000" points="703.4828,-208.2121 701.2851,-218.9555 700.5588,-212.268 697.6348,-216.3239 697.6348,-216.3239 697.6348,-216.3239 700.5588,-212.268 693.9845,-213.6923 703.4828,-208.2121 703.4828,-208.2121"/>
</g>
<!-- A12 -->
<g id="node13" class="node">
<title>A12</title>
<polygon fill="#ffa500" stroke="#000000" points="891.1195,-208 788.1055,-208 788.1055,-172 891.1195,-172 891.1195,-208"/>
<text text-anchor="middle" x="839.6125" y="-187" font-family="Helvetica,sans-Serif" font-size="10.00" fill="#000000">TemplateService</text>
</g>
<!-- A3&#45;&gt;A12 -->
<g id="edge11" class="edge">
<title>A3&#45;&gt;A12</title>
<path fill="none" stroke="#000000" d="M704.5796,-252.7721C731.6602,-240.1833 764.9581,-224.7042 791.7121,-212.2672"/>
<polygon fill="none" stroke="#000000" points="704.2763,-252.913 700.5216,-259.0695 693.3946,-257.9716 697.1492,-251.8151 704.2763,-252.913"/>
<polygon fill="#000000" stroke="#000000" points="800.8815,-208.0047 793.7104,-216.3008 796.3474,-210.1124 791.8134,-212.2202 791.8134,-212.2202 791.8134,-212.2202 796.3474,-210.1124 789.9164,-208.1395 800.8815,-208.0047 800.8815,-208.0047"/>
</g>
<!-- A13 -->
<g id="node14" class="node">
<title>A13</title>
<polygon fill="#ffa500" stroke="#000000" points="996.0116,-208 909.2134,-208 909.2134,-172 996.0116,-172 996.0116,-208"/>
<text text-anchor="middle" x="952.6125" y="-187" font-family="Helvetica,sans-Serif" font-size="10.00" fill="#000000">ToolManager</text>
</g>
<!-- A3&#45;&gt;A13 -->
<g id="edge12" class="edge">
<title>A3&#45;&gt;A13</title>
<path fill="none" stroke="#000000" d="M715.9127,-257.116C794.5686,-234.8576 819.6134,-232.3314 899.0336,-208.3869"/>
<polygon fill="none" stroke="#000000" points="715.7846,-257.1525 711.1146,-262.6472 704.2464,-260.4498 708.9164,-254.9551 715.7846,-257.1525"/>
<polygon fill="#000000" stroke="#000000" points="908.9958,-205.3579 900.7374,-212.5724 904.212,-206.8125 899.4283,-208.267 899.4283,-208.267 899.4283,-208.267 904.212,-206.8125 898.1192,-203.9616 908.9958,-205.3579 908.9958,-205.3579"/>
</g>
<!-- A14 -->
<g id="node15" class="node">
<title>A14</title>
<polygon fill="#ffa500" stroke="#000000" points="1127.1793,-208 1014.0457,-208 1014.0457,-172 1127.1793,-172 1127.1793,-208"/>
<text text-anchor="middle" x="1070.6125" y="-187" font-family="Helvetica,sans-Serif" font-size="10.00" fill="#000000">TransactionService</text>
</g>
<!-- A3&#45;&gt;A14 -->
<g id="edge13" class="edge">
<title>A3&#45;&gt;A14</title>
<path fill="none" stroke="#000000" d="M715.9081,-257.371C839.5849,-228.5645 877.8883,-235.2593 1003.7956,-208.0601"/>
<polygon fill="none" stroke="#000000" points="715.8447,-257.3859 710.928,-262.6609 704.1677,-260.1513 709.0844,-254.8762 715.8447,-257.3859"/>
<polygon fill="#000000" stroke="#000000" points="1013.8175,-205.864 1005.0125,-212.4003 1008.9333,-206.9343 1004.0492,-208.0046 1004.0492,-208.0046 1004.0492,-208.0046 1008.9333,-206.9343 1003.086,-203.6088 1013.8175,-205.864 1013.8175,-205.864"/>
</g>
<!-- A15 -->
<g id="node16" class="node">
<title>A15</title>
<polygon fill="#ffa500" stroke="#000000" points="1257.4986,-208 1145.7264,-208 1145.7264,-172 1257.4986,-172 1257.4986,-208"/>
<text text-anchor="middle" x="1201.6125" y="-187" font-family="Helvetica,sans-Serif" font-size="10.00" fill="#000000">ZoomScrollService</text>
</g>
<!-- A3&#45;&gt;A15 -->
<g id="edge14" class="edge">
<title>A3&#45;&gt;A15</title>
<path fill="none" stroke="#000000" d="M716.1916,-257.4406C897.1859,-220.3042 952.2999,-242.9587 1135.7502,-207.994"/>
<polygon fill="none" stroke="#000000" points="716.1916,-257.4406 711.1377,-262.5843 704.4458,-259.8976 709.4997,-254.7538 716.1916,-257.4406"/>
<polygon fill="#000000" stroke="#000000" points="1145.7221,-206.0611 1136.7611,-212.3818 1140.8135,-207.0126 1135.9048,-207.9641 1135.9048,-207.9641 1135.9048,-207.9641 1140.8135,-207.0126 1135.0485,-203.5463 1145.7221,-206.0611 1145.7221,-206.0611"/>
</g>
<!-- A22 -->
<g id="node23" class="node">
<title>A22</title>
<polygon fill="#707070" stroke="#000000" points="55.338,-122 -.113,-122 -.113,-86 55.338,-86 55.338,-122"/>
<text text-anchor="middle" x="27.6125" y="-101" font-family="Helvetica,sans-Serif" font-size="10.00" fill="#000000">Model</text>
</g>
<!-- A6&#45;&gt;A22 -->
<g id="edge21" class="edge">
<title>A6&#45;&gt;A22</title>
<path fill="none" stroke="#000000" d="M99.2135,-163.7834C85.8766,-152.6477 70.4064,-139.7309 57.2657,-128.759"/>
<polygon fill="none" stroke="#000000" points="99.5575,-164.0706 106.7269,-164.8456 108.7688,-171.7616 101.5995,-170.9865 99.5575,-164.0706"/>
<polygon fill="#000000" stroke="#000000" points="49.4247,-122.2121 59.9849,-125.167 53.2627,-125.4167 57.1008,-128.6213 57.1008,-128.6213 57.1008,-128.6213 53.2627,-125.4167 54.2166,-132.0756 49.4247,-122.2121 49.4247,-122.2121"/>
</g>
<!-- A24 -->
<g id="node25" class="node">
<title>A24</title>
<polygon fill="#707070" stroke="#000000" points="131.6682,-122 73.5568,-122 73.5568,-86 131.6682,-86 131.6682,-122"/>
<text text-anchor="middle" x="102.6125" y="-101" font-family="Helvetica,sans-Serif" font-size="10.00" fill="#000000">Library</text>
</g>
<!-- A6&#45;&gt;A24 -->
<g id="edge25" class="edge">
<title>A6&#45;&gt;A24</title>
<path fill="none" stroke="#000000" d="M120.9447,-160.3061C117.9486,-151.1039 114.6589,-140.9997 111.7034,-131.9221"/>
<polygon fill="none" stroke="#000000" points="120.9593,-160.3511 126.6204,-164.818 124.6744,-171.7616 119.0134,-167.2947 120.9593,-160.3511"/>
<polygon fill="#000000" stroke="#000000" points="108.542,-122.2121 115.9169,-130.3276 110.09,-126.9665 111.6379,-131.7208 111.6379,-131.7208 111.6379,-131.7208 110.09,-126.9665 107.359,-133.114 108.542,-122.2121 108.542,-122.2121"/>
</g>
<!-- A25 -->
<g id="node26" class="node">
<title>A25</title>
<polygon fill="#707070" stroke="#000000" points="274.0016,-122 187.2234,-122 187.2234,-86 274.0016,-86 274.0016,-122"/>
<text text-anchor="middle" x="230.6125" y="-101" font-family="Helvetica,sans-Serif" font-size="10.00" fill="#000000">DiagramData</text>
</g>
<!-- A6&#45;&gt;A25 -->
<g id="edge26" class="edge">
<title>A6&#45;&gt;A25</title>
<path fill="none" stroke="#000000" d="M161.097,-163.7834C174.0454,-152.6477 189.065,-139.7309 201.823,-128.759"/>
<polygon fill="none" stroke="#000000" points="160.9182,-163.9371 158.9772,-170.8821 151.8199,-171.7616 153.7609,-164.8166 160.9182,-163.9371"/>
<polygon fill="#000000" stroke="#000000" points="209.4356,-122.2121 204.788,-132.1444 205.6447,-125.4723 201.8538,-128.7325 201.8538,-128.7325 201.8538,-128.7325 205.6447,-125.4723 198.9196,-125.3207 209.4356,-122.2121 209.4356,-122.2121"/>
</g>
<!-- A16 -->
<g id="node17" class="node">
<title>A16</title>
<polygon fill="#ffa500" stroke="#000000" points="478.7842,-122 404.4408,-122 404.4408,-86 478.7842,-86 478.7842,-122"/>
<text text-anchor="middle" x="441.6125" y="-101" font-family="Helvetica,sans-Serif" font-size="10.00" fill="#000000">InitService</text>
</g>
<!-- A11&#45;&gt;A16 -->
<g id="edge15" class="edge">
<title>A11&#45;&gt;A16</title>
<path fill="none" stroke="#000000" d="M650.9507,-171.1706C598.8857,-156.1264 529.4003,-135.7688 488.4444,-122.1322"/>
<polygon fill="none" stroke="#000000" points="651.1134,-171.2175 657.9871,-169.0378 662.6429,-174.5445 655.7692,-176.7242 651.1134,-171.2175"/>
<polygon fill="#000000" stroke="#000000" points="478.9213,-118.9029 489.8368,-117.8527 483.6565,-120.5086 488.3916,-122.1143 488.3916,-122.1143 488.3916,-122.1143 483.6565,-120.5086 486.9465,-126.376 478.9213,-118.9029 478.9213,-118.9029"/>
</g>
<!-- A17 -->
<g id="node18" class="node">
<title>A17</title>
<polygon fill="#ffa500" stroke="#000000" points="584.5637,-122 496.6613,-122 496.6613,-86 584.5637,-86 584.5637,-122"/>
<text text-anchor="middle" x="540.6125" y="-101" font-family="Helvetica,sans-Serif" font-size="10.00" fill="#000000">CloneService</text>
</g>
<!-- A11&#45;&gt;A17 -->
<g id="edge16" class="edge">
<title>A11&#45;&gt;A17</title>
<path fill="none" stroke="#000000" d="M668.6952,-166.5859C643.1001,-154.0792 611.7519,-138.7613 586.4752,-126.4102"/>
<polygon fill="none" stroke="#000000" points="668.9354,-166.7032 676.0824,-165.7435 679.7171,-171.9716 672.5702,-172.9313 668.9354,-166.7032"/>
<polygon fill="#000000" stroke="#000000" points="577.4593,-122.0047 588.4197,-122.3519 581.9517,-124.1998 586.444,-126.395 586.444,-126.395 586.444,-126.395 581.9517,-124.1998 584.4684,-130.4381 577.4593,-122.0047 577.4593,-122.0047"/>
</g>
<!-- A18 -->
<g id="node19" class="node">
<title>A18</title>
<polygon fill="#ffa500" stroke="#000000" points="712.289,-122 602.936,-122 602.936,-86 712.289,-86 712.289,-122"/>
<text text-anchor="middle" x="657.6125" y="-101" font-family="Helvetica,sans-Serif" font-size="10.00" fill="#000000">DecorationService</text>
</g>
<!-- A11&#45;&gt;A18 -->
<g id="edge17" class="edge">
<title>A11&#45;&gt;A18</title>
<path fill="none" stroke="#000000" d="M697.3098,-161.8639C690.3948,-151.7844 682.6273,-140.4623 675.8091,-130.5238"/>
<polygon fill="none" stroke="#000000" points="697.3115,-161.8664 704.0042,-164.5511 704.1001,-171.7616 697.4074,-169.0769 697.3115,-161.8664"/>
<polygon fill="#000000" stroke="#000000" points="670.1068,-122.2121 679.4747,-127.9124 672.9354,-126.3351 675.764,-130.4581 675.764,-130.4581 675.764,-130.4581 672.9354,-126.3351 672.0533,-133.0039 670.1068,-122.2121 670.1068,-122.2121"/>
</g>
<!-- A19 -->
<g id="node20" class="node">
<title>A19</title>
<polygon fill="#ffa500" stroke="#000000" points="819.2326,-122 729.9924,-122 729.9924,-86 819.2326,-86 819.2326,-122"/>
<text text-anchor="middle" x="774.6125" y="-101" font-family="Helvetica,sans-Serif" font-size="10.00" fill="#000000">GraphService</text>
</g>
<!-- A11&#45;&gt;A19 -->
<g id="edge18" class="edge">
<title>A11&#45;&gt;A19</title>
<path fill="none" stroke="#000000" d="M735.8495,-161.4762C742.5328,-151.5665 749.9992,-140.4956 756.5814,-130.7357"/>
<polygon fill="none" stroke="#000000" points="735.6226,-161.8127 735.584,-169.0238 728.9128,-171.7616 728.9514,-164.5506 735.6226,-161.8127"/>
<polygon fill="#000000" stroke="#000000" points="762.3299,-122.2121 760.4693,-133.019 759.5342,-126.3575 756.7385,-130.5028 756.7385,-130.5028 756.7385,-130.5028 759.5342,-126.3575 753.0076,-127.9867 762.3299,-122.2121 762.3299,-122.2121"/>
</g>
<!-- A20 -->
<g id="node21" class="node">
<title>A20</title>
<polygon fill="#ffa500" stroke="#000000" points="933.9511,-122 837.2739,-122 837.2739,-86 933.9511,-86 933.9511,-122"/>
<text text-anchor="middle" x="885.6125" y="-101" font-family="Helvetica,sans-Serif" font-size="10.00" fill="#000000">PolylineService</text>
</g>
<!-- A11&#45;&gt;A20 -->
<g id="edge19" class="edge">
<title>A11&#45;&gt;A20</title>
<path fill="none" stroke="#000000" d="M762.9907,-166.3993C787.4059,-153.975 817.1932,-138.8169 841.2953,-126.552"/>
<polygon fill="none" stroke="#000000" points="762.7353,-166.5292 759.202,-172.8153 752.0404,-171.9716 755.5737,-165.6854 762.7353,-166.5292"/>
<polygon fill="#000000" stroke="#000000" points="850.2312,-122.0047 843.3597,-130.5506 845.775,-124.2724 841.3188,-126.54 841.3188,-126.54 841.3188,-126.54 845.775,-124.2724 839.2779,-122.5295 850.2312,-122.0047 850.2312,-122.0047"/>
</g>
<!-- A21 -->
<g id="node22" class="node">
<title>A21</title>
<polygon fill="#ffa500" stroke="#000000" points="1047.9521,-122 951.2729,-122 951.2729,-86 1047.9521,-86 1047.9521,-122"/>
<text text-anchor="middle" x="999.6125" y="-101" font-family="Helvetica,sans-Serif" font-size="10.00" fill="#000000">RefreshService</text>
</g>
<!-- A11&#45;&gt;A21 -->
<g id="edge20" class="edge">
<title>A11&#45;&gt;A21</title>
<path fill="none" stroke="#000000" d="M782.2561,-170.5057C825.018,-157.747 882.2778,-140.5513 941.5153,-122.3214"/>
<polygon fill="none" stroke="#000000" points="782.0578,-170.5648 777.4507,-176.1123 770.558,-173.9933 775.1651,-168.4457 782.0578,-170.5648"/>
<polygon fill="#000000" stroke="#000000" points="951.4248,-119.2678 943.1935,-126.5132 946.6466,-120.7403 941.8683,-122.2127 941.8683,-122.2127 941.8683,-122.2127 946.6466,-120.7403 940.5431,-117.9123 951.4248,-119.2678 951.4248,-119.2678"/>
</g>
<!-- A23 -->
<g id="node24" class="node">
<title>A23</title>
<polygon fill="#707070" stroke="#000000" points="108.7356,-36 34.4894,-36 34.4894,0 108.7356,0 108.7356,-36"/>
<text text-anchor="middle" x="71.6125" y="-15" font-family="Helvetica,sans-Serif" font-size="10.00" fill="#000000">SvgObject</text>
</g>
<!-- A22&#45;&gt;A23 -->
<g id="edge22" class="edge">
<title>A22&#45;&gt;A23</title>
<path fill="none" stroke="#000000" d="M42.6046,-74.6972C47.5008,-65.1273 52.9142,-54.5467 57.7255,-45.1428"/>
<polygon fill="none" stroke="#000000" points="42.4095,-75.0786 43.2376,-82.242 36.9438,-85.7616 36.1157,-78.5982 42.4095,-75.0786"/>
<polygon fill="#000000" stroke="#000000" points="62.2947,-36.2121 61.746,-47.1643 60.0173,-40.6633 57.7399,-45.1146 57.7399,-45.1146 57.7399,-45.1146 60.0173,-40.6633 53.7337,-43.0649 62.2947,-36.2121 62.2947,-36.2121"/>
</g>
<!-- A23&#45;&gt;A6 -->
<g id="edge23" class="edge">
<title>A23&#45;&gt;A6</title>
<path fill="none" stroke="#000000" d="M98.816,-36.2676C114.238,-48.3456 132.1068,-65.6754 140.6125,-86 150.7826,-110.3016 146.1947,-140.5023 140.3206,-162.0872"/>
<polygon fill="#000000" stroke="#000000" points="137.3927,-171.9278 135.9315,-161.0597 138.8186,-167.1354 140.2446,-162.343 140.2446,-162.343 140.2446,-162.343 138.8186,-167.1354 144.5577,-163.6264 137.3927,-171.9278 137.3927,-171.9278"/>
</g>
<!-- A23&#45;&gt;A23 -->
<g id="edge24" class="edge">
<title>A23&#45;&gt;A23</title>
<path fill="none" stroke="#000000" d="M118.6158,-31.3555C123.5273,-28.7467 126.674,-24.2949 126.674,-18 126.674,-11.7051 123.5273,-7.2533 118.6158,-4.6445"/>
<polygon fill="#000000" stroke="#000000" points="108.9281,-34.0059 117.3862,-27.0265 113.7509,-32.6864 118.5737,-31.367 118.5737,-31.367 118.5737,-31.367 113.7509,-32.6864 119.7612,-35.7075 108.9281,-34.0059 108.9281,-34.0059"/>
<polygon fill="#000000" stroke="#000000" points="108.9281,-1.9941 119.7612,-.2925 113.7509,-3.3136 118.5737,-4.633 118.5737,-4.633 118.5737,-4.633 113.7509,-3.3136 117.3862,-8.9735 108.9281,-1.9941 108.9281,-1.9941"/>
</g>
<!-- A26 -->
<g id="node27" class="node">
<title>A26</title>
<polygon fill="#707070" stroke="#000000" points="248.5036,-36 166.7214,-36 166.7214,0 248.5036,0 248.5036,-36"/>
<text text-anchor="middle" x="207.6125" y="-15" font-family="Helvetica,sans-Serif" font-size="10.00" fill="#000000">DisplayData</text>
</g>
<!-- A25&#45;&gt;A26 -->
<g id="edge27" class="edge">
<title>A25&#45;&gt;A26</title>
<path fill="none" stroke="#000000" d="M222.5662,-73.9138C220.1501,-64.8797 217.5098,-55.0073 215.1293,-46.1064"/>
<polygon fill="none" stroke="#000000" points="222.6344,-74.169 228.0488,-78.9318 225.7348,-85.7616 220.3204,-80.9988 222.6344,-74.169"/>
<polygon fill="#000000" stroke="#000000" points="212.4832,-36.2121 219.4141,-44.7099 213.775,-41.0423 215.0669,-45.8726 215.0669,-45.8726 215.0669,-45.8726 213.775,-41.0423 210.7196,-47.0352 212.4832,-36.2121 212.4832,-36.2121"/>
</g>
<!-- A27 -->
<g id="node28" class="node">
<title>A27</title>
<polygon fill="#707070" stroke="#000000" points="346.2346,-36 266.9904,-36 266.9904,0 346.2346,0 346.2346,-36"/>
<text text-anchor="middle" x="306.6125" y="-15" font-family="Helvetica,sans-Serif" font-size="10.00" fill="#000000">LayersData</text>
</g>
<!-- A25&#45;&gt;A27 -->
<g id="edge28" class="edge">
<title>A25&#45;&gt;A27</title>
<path fill="none" stroke="#000000" d="M254.795,-76.6356C264.0935,-66.1136 274.6698,-54.1457 283.8319,-43.778"/>
<polygon fill="none" stroke="#000000" points="254.6766,-76.7696 253.7007,-83.9144 246.7301,-85.7616 247.706,-78.6168 254.6766,-76.7696"/>
<polygon fill="#000000" stroke="#000000" points="290.5181,-36.2121 287.2681,-46.6853 287.2071,-39.9588 283.8961,-43.7054 283.8961,-43.7054 283.8961,-43.7054 287.2071,-39.9588 280.5241,-40.7255 290.5181,-36.2121 290.5181,-36.2121"/>
</g>
</g>
</svg>
